<svg width="33" height="23" viewBox="0 0 33 23" fill="none" xmlns="http://www.w3.org/2000/svg">
<g filter="url(#filter0_d_96801_316)">
<path fill-rule="evenodd" clip-rule="evenodd" d="M28.1164 1.80445C28.2824 1.25845 28.1164 0.856445 27.3214 0.856445H24.6964C24.0284 0.856445 23.7204 1.20345 23.5534 1.58645C23.5534 1.58645 22.2184 4.78245 20.3274 6.85845C19.7154 7.46045 19.4374 7.65145 19.1034 7.65145C18.9364 7.65145 18.6854 7.46045 18.6854 6.91345V1.80445C18.6854 1.14845 18.5014 0.856445 17.9454 0.856445H13.8174C13.4004 0.856445 13.1494 1.16045 13.1494 1.44945C13.1494 2.07045 14.0954 2.21445 14.1924 3.96245V7.76045C14.1924 8.59345 14.0394 8.74444 13.7054 8.74444C12.8154 8.74444 10.6504 5.53345 9.36538 1.85945C9.11638 1.14445 8.86438 0.856445 8.19338 0.856445H5.56638C4.81638 0.856445 4.66638 1.20345 4.66638 1.58645C4.66638 2.26845 5.55638 5.65645 8.81138 10.1374C10.9814 13.1974 14.0364 14.8564 16.8194 14.8564C18.4884 14.8564 18.6944 14.4884 18.6944 13.8534V11.5404C18.6944 10.8034 18.8524 10.6564 19.3814 10.6564C19.7714 10.6564 20.4384 10.8484 21.9964 12.3234C23.7764 14.0724 24.0694 14.8564 25.0714 14.8564H27.6964C28.4464 14.8564 28.8224 14.4884 28.6064 13.7604C28.3684 13.0364 27.5184 11.9854 26.3914 10.7384C25.7794 10.0284 24.8614 9.26345 24.5824 8.88045C24.1934 8.38945 24.3044 8.17045 24.5824 7.73345C24.5824 7.73345 27.7824 3.30745 28.1154 1.80445H28.1164Z" fill="#83B3D3"/>
<path d="M24.1772 7.44049L24.5824 7.73345L24.1772 7.44049L24.1685 7.45253L24.1605 7.46507C24.1571 7.47047 24.1536 7.47592 24.1501 7.48144C24.027 7.67478 23.8589 7.93867 23.8339 8.2462C23.805 8.60144 23.9636 8.90284 24.1845 9.18341C24.3505 9.40799 24.665 9.71035 24.9691 10.0027C24.9846 10.0176 25 10.0324 25.0154 10.0472C25.3598 10.3784 25.7247 10.7308 26.0127 11.0649L26.0126 11.065L26.0204 11.0737C26.5808 11.6937 27.0632 12.2551 27.4327 12.7462C27.8061 13.2424 28.0354 13.6297 28.1291 13.9097C28.2064 14.175 28.1433 14.2455 28.1382 14.2513L28.138 14.2515C28.116 14.2765 28.011 14.3564 27.6964 14.3564H25.0714C24.8934 14.3564 24.7666 14.3234 24.6471 14.2619C24.5171 14.1951 24.3731 14.0833 24.1765 13.8896C24.0161 13.7317 23.8409 13.5402 23.6212 13.3001C23.5685 13.2425 23.5133 13.1822 23.4551 13.1188C23.159 12.7965 22.8005 12.4126 22.3468 11.9668L22.3469 11.9667L22.3401 11.9604C20.7722 10.476 19.9801 10.1564 19.3814 10.1564C19.1101 10.1564 18.717 10.1828 18.4528 10.5051C18.3295 10.6556 18.2691 10.8305 18.2367 10.995C18.2046 11.1586 18.1944 11.343 18.1944 11.5404V13.8534C18.1944 14.1187 18.1514 14.1469 18.1105 14.1737L18.1077 14.1755C17.9842 14.2569 17.6543 14.3564 16.8194 14.3564C14.2314 14.3564 11.3163 12.8054 9.21924 9.84822L9.21926 9.8482L9.21592 9.84359C7.61074 7.63383 6.59339 5.69995 5.97896 4.24303C5.67163 3.51428 5.46603 2.90704 5.33807 2.44632C5.20603 1.97091 5.16638 1.68571 5.16638 1.58645C5.16638 1.52087 5.17312 1.47905 5.18066 1.45379C5.18686 1.43301 5.19211 1.42787 5.19305 1.42695C5.19309 1.42691 5.19312 1.42688 5.19314 1.42686L5.19319 1.42681C5.19431 1.42565 5.20973 1.40962 5.2627 1.39255C5.31967 1.3742 5.41524 1.35645 5.56638 1.35645H8.19338C8.45481 1.35645 8.54713 1.41069 8.6018 1.46025C8.68075 1.53182 8.77286 1.67834 8.8932 2.02388L8.89342 2.02452C9.5485 3.89749 10.4281 5.65438 11.2632 6.95051C11.6798 7.59716 12.0943 8.14299 12.4739 8.53372C12.6632 8.72859 12.855 8.89661 13.0446 9.01917C13.2252 9.13598 13.4539 9.24444 13.7054 9.24444C13.82 9.24444 13.9721 9.23271 14.125 9.16496C14.292 9.09094 14.4209 8.96788 14.5097 8.81041C14.6611 8.54191 14.6924 8.17261 14.6924 7.76045V3.96245V3.94858L14.6916 3.93474C14.6371 2.95251 14.3363 2.38646 14.0348 1.98368C13.9688 1.8956 13.904 1.81681 13.8504 1.75162L13.84 1.73902C13.7812 1.66746 13.7402 1.61681 13.7076 1.57046C13.6492 1.4876 13.6493 1.46204 13.6494 1.45035L13.6494 1.44945C13.6494 1.44948 13.6494 1.4481 13.65 1.44536C13.6506 1.44262 13.6517 1.4388 13.6537 1.43415C13.6578 1.42472 13.665 1.4134 13.6763 1.40238C13.6954 1.38371 13.7361 1.35645 13.8174 1.35645H17.9454C18.0436 1.35645 18.0926 1.36975 18.1122 1.37748C18.118 1.37978 18.1211 1.3815 18.1222 1.3822C18.1224 1.38242 18.1226 1.38274 18.123 1.3832C18.1264 1.38779 18.1437 1.41371 18.1593 1.48552C18.1751 1.55817 18.1854 1.66098 18.1854 1.80445V6.91345C18.1854 7.57294 18.5211 8.15145 19.1034 8.15145C19.6735 8.15145 20.0931 7.79027 20.678 7.2149L20.6878 7.20528L20.697 7.19514C21.6827 6.11302 22.5119 4.7539 23.0897 3.68105C23.3802 3.14168 23.6105 2.66843 23.7685 2.32941C23.8475 2.1598 23.9085 2.02352 23.9501 1.92904C23.9708 1.88179 23.9867 1.84497 23.9976 1.81965L24.01 1.7904L24.0129 1.78353C24.0741 1.64404 24.1463 1.54513 24.235 1.47931C24.3186 1.41729 24.4543 1.35645 24.6964 1.35645H27.3214C27.5629 1.35645 27.6486 1.40133 27.6704 1.41641C27.6728 1.42578 27.6765 1.44738 27.6738 1.48609L27.6272 1.69629C27.5614 1.99329 27.3333 2.49449 26.9855 3.1227C26.6467 3.73438 26.2226 4.41749 25.8048 5.06001C25.3877 5.70148 24.9805 6.29713 24.6772 6.73273C24.5257 6.9504 24.4004 7.12778 24.3131 7.25056C24.2694 7.31195 24.2353 7.35966 24.2121 7.39192L24.1859 7.42848L24.1793 7.43764L24.1776 7.43986L24.1773 7.44038L24.1772 7.44049Z" stroke="black"/>
</g>
<defs>
<filter id="filter0_d_96801_316" x="0.666382" y="0.856445" width="32.0005" height="22" filterUnits="userSpaceOnUse" color-interpolation-filters="sRGB">
<feFlood flood-opacity="0" result="BackgroundImageFix"/>
<feColorMatrix in="SourceAlpha" type="matrix" values="0 0 0 0 0 0 0 0 0 0 0 0 0 0 0 0 0 0 127 0" result="hardAlpha"/>
<feOffset dy="4"/>
<feGaussianBlur stdDeviation="2"/>
<feComposite in2="hardAlpha" operator="out"/>
<feColorMatrix type="matrix" values="0 0 0 0 0 0 0 0 0 0 0 0 0 0 0 0 0 0 0.25 0"/>
<feBlend mode="normal" in2="BackgroundImageFix" result="effect1_dropShadow_96801_316"/>
<feBlend mode="normal" in="SourceGraphic" in2="effect1_dropShadow_96801_316" result="shape"/>
</filter>
</defs>
</svg>
